<svg version="1.1" viewBox="0.0 0.0 701.2073490813648 704.6955380577427" fill="none" stroke="none" stroke-linecap="square" stroke-miterlimit="10" xmlns:xlink="http://www.w3.org/1999/xlink" xmlns="http://www.w3.org/2000/svg"><clipPath id="p.0"><path d="m0 0l701.20734 0l0 704.69556l-701.20734 0l0 -704.69556z" clip-rule="nonzero"/></clipPath><g clip-path="url(#p.0)"><path fill="#000000" fill-opacity="0.0" d="m0 0l701.20734 0l0 704.69556l-701.20734 0z" fill-rule="evenodd"/><path fill="#434343" d="m4.96063 352.0l0 0c0 -191.01225 154.84602 -345.85828 345.85828 -345.85828l0 0c91.727295 0 179.6977 36.438534 244.55872 101.299545c64.86102 64.861 101.29956 152.83139 101.29956 244.55872l0 0c0 191.01227 -154.84607 345.85828 -345.85828 345.85828l0 0c-191.01225 0 -345.85828 -154.84601 -345.85828 -345.85828z" fill-rule="evenodd"/><path stroke="#ffffff" stroke-width="3.0" stroke-linejoin="round" stroke-linecap="butt" d="m4.96063 352.0l0 0c0 -191.01225 154.84602 -345.85828 345.85828 -345.85828l0 0c91.727295 0 179.6977 36.438534 244.55872 101.299545c64.86102 64.861 101.29956 152.83139 101.29956 244.55872l0 0c0 191.01227 -154.84607 345.85828 -345.85828 345.85828l0 0c-191.01225 0 -345.85828 -154.84601 -345.85828 -345.85828z" fill-rule="evenodd"/></g></svg>